<?xml version="1.0" standalone="no"?>
<!DOCTYPE svg PUBLIC "-//W3C//DTD SVG 20010904//EN"
 "http://www.w3.org/TR/2001/REC-SVG-20010904/DTD/svg10.dtd">
<svg version="1.0" xmlns="http://www.w3.org/2000/svg"
 width="120.000000pt" height="120.000000pt" viewBox="0 0 120.000000 120.000000"
 preserveAspectRatio="xMidYMid meet">
<metadata>
Created by potrace 1.16, written by Peter Selinger 2001-2019
</metadata>
<g transform="translate(0.000000,120.000000) scale(0.100000,-0.100000)"
fill="#000000" stroke="none">
<path d="M899 1063 c-42 -26 -61 -67 -57 -122 l3 -48 -110 -126 -110 -126
-136 0 c-134 -1 -136 -1 -149 24 -26 49 -108 69 -160 39 -79 -47 -79 -161 0
-208 54 -31 133 -12 161 41 12 22 16 23 148 22 l136 0 110 -126 110 -126 -3
-48 c-8 -105 91 -174 178 -123 110 65 53 234 -75 223 -32 -3 -40 4 -139 116
-58 66 -106 122 -106 125 0 3 48 59 106 125 103 117 106 119 144 116 47 -3 90
20 114 59 60 102 -65 226 -165 163z"/>
</g>
</svg>
