<?xml version="1.0" standalone="no"?>
<!DOCTYPE svg PUBLIC "-//W3C//DTD SVG 20010904//EN"
 "http://www.w3.org/TR/2001/REC-SVG-20010904/DTD/svg10.dtd">
<svg version="1.0" xmlns="http://www.w3.org/2000/svg"
 width="120.000000pt" height="120.000000pt" viewBox="0 0 120.000000 120.000000"
 preserveAspectRatio="xMidYMid meet">
<metadata>
Created by potrace 1.16, written by Peter Selinger 2001-2019
</metadata>
<g transform="translate(0.000000,120.000000) scale(0.100000,-0.100000)"
fill="#000000" stroke="none">
<path d="M905 1015 c-14 -13 -25 -34 -25 -47 0 -16 -19 -39 -63 -74 -81 -66
-126 -74 -203 -36 -30 14 -54 32 -54 40 0 25 -48 62 -80 62 -35 0 -80 -38 -80
-67 0 -28 -115 -98 -156 -94 -44 3 -84 -35 -84 -79 0 -41 39 -80 80 -80 35 0
80 38 80 67 0 30 111 95 168 97 52 3 152 -38 152 -62 0 -25 48 -62 80 -62 37
0 80 39 80 72 0 34 118 128 160 128 41 0 80 39 80 80 0 19 -9 40 -25 55 -15
16 -36 25 -55 25 -19 0 -40 -9 -55 -25z"/>
<path d="M892 708 c-9 -9 -12 -85 -12 -280 l0 -268 80 0 80 0 0 268 c0 195 -3
271 -12 280 -7 7 -37 12 -68 12 -31 0 -61 -5 -68 -12z"/>
<path d="M412 628 c-9 -9 -12 -76 -12 -240 l0 -228 80 0 80 0 0 228 c0 164 -3
231 -12 240 -7 7 -37 12 -68 12 -31 0 -61 -5 -68 -12z"/>
<path d="M652 548 c-8 -8 -12 -67 -12 -200 l0 -188 80 0 80 0 0 188 c0 133 -4
192 -12 200 -7 7 -37 12 -68 12 -31 0 -61 -5 -68 -12z"/>
<path d="M172 468 c-8 -8 -12 -58 -12 -160 l0 -148 80 0 80 0 0 148 c0 102 -4
152 -12 160 -7 7 -37 12 -68 12 -31 0 -61 -5 -68 -12z"/>
</g>
</svg>
